<svg width="4193" height="1480" xmlns="http://www.w3.org/2000/svg" xmlns:xlink="http://www.w3.org/1999/xlink" xml:space="preserve" overflow="hidden"><defs><clipPath id="clip0"><rect x="148" y="382" width="4193" height="1480"/></clipPath></defs><g clip-path="url(#clip0)" transform="translate(-148 -382)"><path d="M240 794C240 611.746 387.746 464 570 464 752.254 464 900 611.746 900 794 900 976.254 752.254 1124 570 1124 387.746 1124 240 976.254 240 794Z" stroke="#000000" stroke-width="45.8333" stroke-miterlimit="8" fill="#70AD47" fill-rule="evenodd"/><text font-family="Calibri,Calibri_MSFontService,sans-serif" font-weight="400" font-size="303" transform="matrix(1 0 0 1 932.655 893)">raph</text><text font-family="Calibri,Calibri_MSFontService,sans-serif" font-weight="700" font-size="458" transform="matrix(1 0 0 1 423.566 949)">G</text><path d="M1187 1310C1187 1127.75 1334.75 980 1517 980 1699.25 980 1847 1127.75 1847 1310 1847 1492.25 1699.25 1640 1517 1640 1334.75 1640 1187 1492.25 1187 1310Z" stroke="#000000" stroke-width="45.8333" stroke-miterlimit="8" fill="#ED7D31" fill-rule="evenodd"/><text font-family="Calibri,Calibri_MSFontService,sans-serif" font-weight="400" font-size="303" transform="matrix(1 0 0 1 1880.22 1410)">gorithm</text><text font-family="Calibri,Calibri_MSFontService,sans-serif" font-weight="700" font-size="458" transform="matrix(1 0 0 1 1322.15 1466)">Al</text><path d="M2133 794C2133 611.746 2280.75 464 2463 464 2645.25 464 2793 611.746 2793 794 2793 976.254 2645.25 1124 2463 1124 2280.75 1124 2133 976.254 2133 794Z" stroke="#000000" stroke-width="45.8333" stroke-miterlimit="8" fill="#5B9BD5" fill-rule="evenodd"/><text font-family="Calibri,Calibri_MSFontService,sans-serif" font-weight="400" font-size="303" transform="matrix(1 0 0 1 2825.89 893)">imation</text><text font-family="Calibri,Calibri_MSFontService,sans-serif" font-weight="700" font-size="458" transform="matrix(1 0 0 1 2201.07 949)">An</text><path d="M3079 1310C3079 1127.75 3226.75 980 3409 980 3591.25 980 3739 1127.75 3739 1310 3739 1492.25 3591.25 1640 3409 1640 3226.75 1640 3079 1492.25 3079 1310Z" stroke="#000000" stroke-width="45.8333" stroke-miterlimit="8" fill="#FFC000" fill-rule="evenodd"/><text font-family="Calibri,Calibri_MSFontService,sans-serif" font-weight="400" font-size="303" transform="matrix(1 0 0 1 3771.56 1410)">ool</text><text font-family="Calibri,Calibri_MSFontService,sans-serif" font-weight="700" font-size="458" transform="matrix(1 0 0 1 3295.13 1466)">T</text><path d="M11.8015-19.6443 249.735 123.297 226.132 162.585-11.8015 19.6443ZM253.693 72.2066 336.155 201.949 182.884 190.072Z" transform="matrix(1 -1.22465e-16 -1.22465e-16 -1 1803 1141.95)"/><path d="M866.602 937.192 1139.06 1062.92 1119.85 1104.54 847.398 978.808ZM1137.45 1011.7 1233.5 1131.74 1079.84 1136.55Z"/><path d="M2745.6 933.192 3018.06 1058.92 2998.85 1100.54 2726.4 974.808ZM3016.45 1007.7 3112.5 1127.74 2958.84 1132.55Z"/></g></svg>