<svg width="5534" height="1361" xmlns="http://www.w3.org/2000/svg" xmlns:xlink="http://www.w3.org/1999/xlink" xml:space="preserve" overflow="hidden"><defs><clipPath id="clip0"><rect x="2277" y="6650" width="5534" height="1361"/></clipPath></defs><g clip-path="url(#clip0)" transform="translate(-2277 -6650)"><path d="M2368 7103C2368 6906.39 2515.75 6747 2698 6747 2880.25 6747 3028 6906.39 3028 7103 3028 7299.61 2880.25 7459 2698 7459 2515.75 7459 2368 7299.61 2368 7103Z" stroke="#000000" stroke-width="45.8333" stroke-miterlimit="8" fill="#70AD47" fill-rule="evenodd"/><text font-family="Calibri,Calibri_MSFontService,sans-serif" font-weight="700" font-size="458" transform="matrix(1 0 0 1 2552.07 7235)">G</text><path d="M3901 7447C3901 7250.39 4048.75 7091 4231 7091 4413.25 7091 4561 7250.39 4561 7447 4561 7643.61 4413.25 7803 4231 7803 4048.75 7803 3901 7643.61 3901 7447Z" stroke="#000000" stroke-width="45.8333" stroke-miterlimit="8" fill="#ED7D31" fill-rule="evenodd"/><text font-family="Calibri,Calibri_MSFontService,sans-serif" font-weight="700" font-size="458" transform="matrix(1 0 0 1 4067.68 7589)">a</text><text font-family="Calibri,Calibri_MSFontService,sans-serif" font-weight="700" font-size="458" transform="matrix(1 0 0 1 4293.98 7589)">l</text><path d="M5618 7103C5618 6906.39 5765.75 6747 5948 6747 6130.25 6747 6278 6906.39 6278 7103 6278 7299.61 6130.25 7459 5948 7459 5765.75 7459 5618 7299.61 5618 7103Z" stroke="#000000" stroke-width="45.8333" stroke-miterlimit="8" fill="#5B9BD5" fill-rule="evenodd"/><text font-family="Calibri,Calibri_MSFontService,sans-serif" font-weight="700" font-size="458" transform="matrix(1 0 0 1 5712.02 7217)">a</text><text font-family="Calibri,Calibri_MSFontService,sans-serif" font-weight="700" font-size="458" transform="matrix(1 0 0 1 5938.32 7217)">n</text><path d="M7128 7447C7128 7250.39 7275.75 7091 7458 7091 7640.25 7091 7788 7250.39 7788 7447 7788 7643.61 7640.25 7803 7458 7803 7275.75 7803 7128 7643.61 7128 7447Z" stroke="#000000" stroke-width="45.8333" stroke-miterlimit="8" fill="#FFC000" fill-rule="evenodd"/><text font-family="Calibri,Calibri_MSFontService,sans-serif" font-weight="700" font-size="458" transform="matrix(1 0 0 1 7373.55 7614)">t</text><path d="M3.96892-22.5704 952.281 144.187 944.343 189.328-3.96892 22.5704ZM937.649 95.0773 1061.16 186.602 913.835 230.5Z" transform="matrix(1 0 0 -1 4561 7351.6)"/><path d="M3035.07 7081.2 3804.9 7331.06 3790.75 7374.66 3020.93 7124.8ZM3797.25 7280.39 3906.81 7388.23 3754.81 7411.18Z"/><path d="M6290.28 7080.96 7060.2 7300.28 7047.64 7344.36 6277.72 7125.04ZM7050.72 7249.92 7164.12 7353.71 7013.05 7382.16Z"/></g></svg>